<svg class="svg-icon" style="width:1em;height:1em;vertical-align:middle;fill:currentColor;color:#19cc96;overflow:hidden" viewBox="0 0 1024 1024" xmlns="http://www.w3.org/2000/svg"><path d="M448 768c11.947 0 21.333 9.387 21.333 21.333 0 11.947-9.386 21.334-21.333 21.334s-21.333-9.387-21.333-21.334c0-11.946 9.386-21.333 21.333-21.333m128 0c11.947 0 21.333 9.387 21.333 21.333 0 11.947-9.386 21.334-21.333 21.334s-21.333-9.387-21.333-21.334c0-11.946 9.386-21.333 21.333-21.333M426.667 469.333c23.466 0 42.666 19.2 42.666 42.667 0 23.467-19.2 42.667-42.666 42.667C403.2 554.667 384 535.467 384 512c0-23.467 19.2-42.667 42.667-42.667m170.666 0C620.8 469.333 640 488.533 640 512c0 23.467-19.2 42.667-42.667 42.667-23.466 0-42.666-19.2-42.666-42.667 0-23.467 19.2-42.667 42.666-42.667M768 768c0 94.293-114.773 170.667-256 170.667S256 862.293 256 768c0-38.4 19.2-73.813 51.2-102.4-32-42.667-51.2-96-51.2-153.6l5.12-52.053c-23.04 6.4-50.773 6.4-73.387 0C144.213 448 78.507 398.933 88.32 364.8c9.813-34.133 91.307-40.533 134.827-27.733 25.173 7.253 52.053 25.6 67.84 45.226l24.32-34.56c-25.6-46.933-16.64-177.066 111.36-219.733l-3.84 5.973c-11.947 18.774-42.667 78.08-10.24 142.08 30.72-12.8 64-20.053 99.413-20.053s68.693 7.253 99.413 20.053c32.427-64 1.707-123.306-10.24-142.08l-3.84-5.973c128 42.667 136.96 172.8 111.36 219.733l24.32 34.56c15.787-19.626 42.667-37.973 67.84-45.226 43.52-12.8 125.014-6.4 134.827 27.733 9.813 34.133-55.893 83.2-99.413 95.147-22.614 6.4-50.347 6.4-73.387 0L768 512c0 57.6-19.2 110.933-51.2 153.6 32 28.587 51.2 64 51.2 102.4m-256-85.333c-94.293 0-170.667 38.4-170.667 85.333S417.707 853.333 512 853.333s170.667-38.4 170.667-85.333S606.293 682.667 512 682.667m0-85.334c47.787 0 92.587 8.96 130.987 23.894 24.746-29.44 39.68-66.56 39.68-109.227 0-94.293-76.374-170.667-170.667-170.667S341.333 417.707 341.333 512c0 42.667 14.934 79.787 39.68 109.227 38.4-14.934 83.2-23.894 130.987-23.894m89.173-463.36Z"/></svg>