<?xml version="1.0" encoding="iso-8859-1"?>
<!-- Uploaded to: SVG Repo, www.svgrepo.com, Generator: SVG Repo Mixer Tools -->
<!DOCTYPE svg PUBLIC "-//W3C//DTD SVG 1.1//EN" "http://www.w3.org/Graphics/SVG/1.1/DTD/svg11.dtd">
<svg   version="1.1" id="Capa_1" xmlns="http://www.w3.org/2000/svg" xmlns:xlink="http://www.w3.org/1999/xlink" 
	 viewBox="0 0 31.917 31.917"
	 xml:space="preserve" style="width: 1em; height: 1em;vertical-align: middle;fill: currentColor;color:#19cc96;overflow: hidden;">
<g>
	<g>
		<polygon points="20.568,30.139 29.785,30.139 29.785,24.357 20.568,24.357 20.568,21.25 11.35,21.25 11.35,27.466 2.133,27.466 
			2.133,30.139 11.35,30.139 		"/>
		<rect x="1.478" y="30.596" width="28.961" height="1.321"/>
		<circle cx="17.826" cy="2.699" r="2.699"/>
		<path d="M22.064,11.932c0,1.368,1.113,2.48,2.482,2.48s2.482-1.112,2.482-2.48c0-1.367-1.113-2.481-2.482-2.481
			C23.178,9.45,22.064,10.564,22.064,11.932z M26.472,11.932c0,1.062-0.864,1.927-1.926,1.927s-1.926-0.865-1.926-1.927
			s0.864-1.926,1.926-1.926S26.472,10.87,26.472,11.932z"/>
		<path d="M24.426,10.986c-0.042,0.067-0.097,0.123-0.163,0.16c-0.066,0.041-0.141,0.07-0.223,0.086
			c-0.082,0.019-0.168,0.026-0.254,0.023v0.493h0.56v1.377h0.714v-2.39h-0.562C24.492,10.837,24.468,10.918,24.426,10.986z"/>
		<path d="M15.382,11.063l0.051,1.007h0.14v0.614v0.453l-1.139,2.112l-2.246-1.189l-0.882,1.666l0,0l-0.236,0.445l0.591,0.313
			l0.235-0.447l3.163,1.676l0.882-1.665l-0.004-0.002l1.568-2.909h0.679l0.802,3.251l-1.896,2.803l0.004,0.002L17.089,19.2
			l1.951,1.321l0.461-0.685l-0.418-0.282l1.922-2.844l-0.01-0.006l-0.881-3.569v-0.453v-0.614h0.174l0.338-4.423l1.52-0.922
			l1.395,2.229h2.228l1.958-3.488h0.023V3.759V3.515V2.238h-6.367v1.276h-0.01v1.692l-1.283,0.598h-1.282l-1.029,1.194l-0.995-1.193
			l-1.942,0.363l0.002,0.021l-4.191-2.668L9.672,5.06l5.429,3.456L15.382,11.063z M23.089,3.636l3.111,0.03v1.672l-1.478,2.518
			l-1.31-1.9l1.336-0.812l-0.299-1.376l-1.367,0.64L23.089,3.636z"/>
	</g>
</g>
</svg>